<svg xmlns="http://www.w3.org/2000/svg" viewBox="0 0 100 100">
  <circle cx="50" cy="50" r="48" fill="#ee1515" stroke="#222" stroke-width="4"/>
  <rect x="2" y="48" width="96" height="4" fill="#222"/>
  <circle cx="50" cy="50" r="48" fill="none" stroke="#222" stroke-width="4"/>
  <circle cx="50" cy="50" r="16" fill="#fff" stroke="#222" stroke-width="4"/>
  <circle cx="50" cy="50" r="8" fill="#fff" stroke="#222" stroke-width="3"/>
  <path d="M2 50 Q50 50 98 50" fill="none" stroke="#222" stroke-width="4"/>
  <rect x="2" y="50" width="96" height="48" rx="0" fill="#fff" clip-path="inset(0 0 0 0 round 0 0 48px 48px)"/>
  <path d="M50 98 A48 48 0 0 1 2 50 L98 50 A48 48 0 0 1 50 98Z" fill="#fff"/>
  <path d="M50 98 A48 48 0 0 1 2 50 L98 50 A48 48 0 0 1 50 98Z" fill="none" stroke="#222" stroke-width="4"/>
</svg>
